<?xml version="1.0" encoding="UTF-8" standalone="no"?>
<svg
   xmlns:dc="http://purl.org/dc/elements/1.1/"
   xmlns:cc="http://creativecommons.org/ns#"
   xmlns:rdf="http://www.w3.org/1999/02/22-rdf-syntax-ns#"
   xmlns:svg="http://www.w3.org/2000/svg"
   xmlns="http://www.w3.org/2000/svg"
   width="48"
   height="48"
   viewBox="0 0 48 48"
   id="svg2"
   version="1.1">
  <defs
     id="defs4" />
  <metadata
     id="metadata7">
    <rdf:RDF>
      <cc:Work
         rdf:about="">
        <dc:format>image/svg+xml</dc:format>
        <dc:type
           rdf:resource="http://purl.org/dc/dcmitype/StillImage" />
        <dc:title></dc:title>
      </cc:Work>
    </rdf:RDF>
  </metadata>
  <path
     transform="matrix(1.15,0,0,-1.15,-3.6,-1158.6165)"
     id="path3340"
     d="m 41,-1028.3622 a 17,17 0 0 1 -17,17 17,17 0 0 1 -17,-17 17,17 0 0 1 17,-17 17,17 0 0 1 17,17 z"
     style="opacity:1;fill:#8bc34a;fill-opacity:1;stroke:none;stroke-width:0.88582677;stroke-miterlimit:4;stroke-dasharray:7.08661413, 7.08661413000000010;stroke-dashoffset:0;" />
  <path
     d="M 31.625001,10.793112 16.375,10.793113 8.7499995,24 16.374999,37.206888 31.625,37.206887 39.250001,24 Z"
     id="path3350"
     style="opacity:1;fill:#2e7d32;fill-opacity:1;stroke:none;stroke-width:0.88582677;stroke-miterlimit:4;stroke-dasharray:7.08661413, 7.08661413000000010;stroke-dashoffset:0;" />
  <path
     transform="matrix(1,0,0,-1,0,48.000001)"
     d="M 17,34.392305 17,13.607696 35,24 Z"
     id="path4181"
     style="opacity:1;fill:#fdd835;fill-opacity:1;stroke:none;stroke-width:1;stroke-miterlimit:4;stroke-dasharray:none;stroke-dashoffset:0;stroke-opacity:1;" />
</svg>
