<?xml version="1.0" encoding="UTF-8" standalone="no"?>
<svg
   xmlns:dc="http://purl.org/dc/elements/1.1/"
   xmlns:cc="http://creativecommons.org/ns#"
   xmlns:rdf="http://www.w3.org/1999/02/22-rdf-syntax-ns#"
   xmlns:svg="http://www.w3.org/2000/svg"
   xmlns="http://www.w3.org/2000/svg"
   version="1.1"
   id="svg2"
   viewBox="0 0 48 48"
   height="48"
   width="48">
  <defs
     id="defs4" />
  <metadata
     id="metadata7">
    <rdf:RDF>
      <cc:Work
         rdf:about="">
        <dc:format>image/svg+xml</dc:format>
        <dc:type
           rdf:resource="http://purl.org/dc/dcmitype/StillImage" />
        <dc:title></dc:title>
      </cc:Work>
    </rdf:RDF>
  </metadata>
  <path
     transform="matrix(1,0,0,-1,0,48.000001)"
     id="path3340"
     d="M 24,1 A 23,23 0 0 0 1,24 23,23 0 0 0 24,47 23,23 0 0 0 47,24 23,23 0 0 0 24,1 Z M 14.761719,8 33.238281,8 42.474609,24 33.238281,40 14.761719,40 5.5253906,24 14.761719,8 Z"
     style="opacity:1;fill:#03a9f4;fill-opacity:1;stroke:none;stroke-width:0.88582677;stroke-miterlimit:4;stroke-dasharray:7.08661413, 7.08661413000000010;stroke-dashoffset:0;" />
  <path
     transform="matrix(1,0,0,-1,0,48.000001)"
     style="opacity:1;fill:#03a9f4;fill-opacity:1;stroke:none;stroke-width:1;stroke-miterlimit:4;stroke-dasharray:none;stroke-dashoffset:0;stroke-opacity:1;"
     id="path4181"
     d="M 16,12.452994 16,35.547005 36,24 Z" />
</svg>
