<?xml version="1.0" encoding="UTF-8" standalone="no"?>
<svg
   xmlns:dc="http://purl.org/dc/elements/1.1/"
   xmlns:cc="http://creativecommons.org/ns#"
   xmlns:rdf="http://www.w3.org/1999/02/22-rdf-syntax-ns#"
   xmlns:svg="http://www.w3.org/2000/svg"
   xmlns="http://www.w3.org/2000/svg"
   xmlns:xlink="http://www.w3.org/1999/xlink"
   xmlns:sodipodi="http://sodipodi.sourceforge.net/DTD/sodipodi-0.dtd"
   xmlns:inkscape="http://www.inkscape.org/namespaces/inkscape"
   version="1.1"
   id="svg2"
   viewBox="0 0 48 48"
   height="48"
   width="48"
   inkscape:version="0.91 r13725"
   sodipodi:docname="icon-ios.svg">
  <sodipodi:namedview
     pagecolor="#ffffff"
     bordercolor="#666666"
     borderopacity="1"
     objecttolerance="10"
     gridtolerance="10"
     guidetolerance="10"
     inkscape:pageopacity="0"
     inkscape:pageshadow="2"
     inkscape:window-width="1680"
     inkscape:window-height="1027"
     id="namedview4172"
     showgrid="false"
     inkscape:zoom="8.9583335"
     inkscape:cx="12.055813"
     inkscape:cy="4.161003"
     inkscape:window-x="-8"
     inkscape:window-y="-8"
     inkscape:window-maximized="1"
     inkscape:current-layer="svg2" />
  <defs
     id="defs4">
    <linearGradient
       id="linearGradient5598">
      <stop
         style="stop-color:#000000;stop-opacity:0.24260356"
         offset="0"
         id="stop5600" />
      <stop
         style="stop-color:#000000;stop-opacity:0"
         offset="1"
         id="stop5602" />
    </linearGradient>
    <linearGradient
       xlink:href="#linearGradient5598"
       id="linearGradient5604"
       x1="22"
       y1="22"
       x2="49"
       y2="51"
       gradientUnits="userSpaceOnUse" />
    <filter
       id="filter6536"
       style="color-interpolation-filters:sRGB;">
      <feFlood
         id="feFlood6538"
         result="flood"
         flood-color="rgb(0,0,0)"
         flood-opacity="0.501961" />
      <feComposite
         id="feComposite6540"
         result="composite1"
         operator="in"
         in2="SourceGraphic"
         in="flood" />
      <feGaussianBlur
         id="feGaussianBlur6542"
         result="blur"
         stdDeviation="0.1"
         in="composite1" />
      <feOffset
         id="feOffset6544"
         result="offset"
         dy="-0.2"
         dx="0" />
      <feComposite
         id="feComposite6546"
         result="fbSourceGraphic"
         operator="over"
         in2="offset"
         in="SourceGraphic" />
      <feColorMatrix
         id="feColorMatrix6668"
         values="0 0 0 -1 0 0 0 0 -1 0 0 0 0 -1 0 0 0 0 1 0"
         in="fbSourceGraphic"
         result="fbSourceGraphicAlpha" />
      <feFlood
         in="fbSourceGraphic"
         result="flood"
         flood-color="rgb(255,255,255)"
         flood-opacity="0.501961"
         id="feFlood6670" />
      <feComposite
         result="composite1"
         operator="out"
         in="flood"
         in2="fbSourceGraphic"
         id="feComposite6672" />
      <feGaussianBlur
         result="blur"
         stdDeviation="0.1"
         in="composite1"
         id="feGaussianBlur6674" />
      <feOffset
         result="offset"
         dy="-0.1"
         dx="0"
         id="feOffset6676" />
      <feComposite
         result="fbSourceGraphic"
         operator="atop"
         in="offset"
         in2="fbSourceGraphic"
         id="feComposite6678" />
      <feColorMatrix
         id="feColorMatrix6728"
         values="0 0 0 -1 0 0 0 0 -1 0 0 0 0 -1 0 0 0 0 1 0"
         in="fbSourceGraphic"
         result="fbSourceGraphicAlpha" />
      <feFlood
         in="fbSourceGraphic"
         result="flood"
         flood-color="rgb(0,0,0)"
         flood-opacity="0.501961"
         id="feFlood6730" />
      <feComposite
         result="composite1"
         operator="out"
         in="flood"
         in2="fbSourceGraphic"
         id="feComposite6732" />
      <feGaussianBlur
         result="blur"
         stdDeviation="0.1"
         in="composite1"
         id="feGaussianBlur6734" />
      <feOffset
         result="offset"
         dy="0.1"
         dx="0"
         id="feOffset6736" />
      <feComposite
         result="composite2"
         operator="atop"
         in="offset"
         in2="fbSourceGraphic"
         id="feComposite6738" />
    </filter>
    <clipPath
       id="clipPath6742"
       clipPathUnits="userSpaceOnUse">
      <rect
         style="opacity:1;fill:#2e7d32;fill-opacity:1;stroke:none;stroke-width:0.88582677;stroke-miterlimit:4;stroke-dasharray:7.08661413, 7.08661413;stroke-dashoffset:0"
         id="rect6744"
         width="40"
         height="40"
         x="4"
         y="-43.999981"
         rx="2.1052632"
         transform="scale(1,-1)" />
    </clipPath>
    <clipPath
       id="clipPath6748"
       clipPathUnits="userSpaceOnUse">
      <rect
         style="opacity:1;fill:#2e7d32;fill-opacity:1;stroke:none;stroke-width:0.88582677;stroke-miterlimit:4;stroke-dasharray:7.08661413, 7.08661413;stroke-dashoffset:0"
         id="rect6750"
         width="40"
         height="40"
         x="4"
         y="-43.999981"
         rx="2.1052632"
         transform="scale(1,-1)" />
    </clipPath>
  </defs>
  <metadata
     id="metadata7">
    <rdf:RDF>
      <cc:Work
         rdf:about="">
        <dc:format>image/svg+xml</dc:format>
        <dc:type
           rdf:resource="http://purl.org/dc/dcmitype/StillImage" />
        <dc:title></dc:title>
      </cc:Work>
    </rdf:RDF>
  </metadata>
  <path
     inkscape:connector-curvature="0"
     style="opacity:1;fill:#000000;fill-opacity:0.12941176;stroke:none;stroke-width:0.88582677;stroke-miterlimit:4;stroke-dasharray:7.08661413, 7.08661413;stroke-dashoffset:0"
     clip-path="url(#clipPath6748)"
     d="m 24,9 -12.990234,7.5 0,15 0.002,0.002 0.0078,0.0039 0,0.0039 0.0098,0.0059 0,0.0059 0.01758,0.0098 0,0.0059 0.01953,0.01172 0,0.0078 0.02539,0.01563 0,0.0098 0.0293,0.01758 0,0.01172 0.03516,0.01953 0,0.01563 0.03906,0.02344 0,0.01563 0.04297,0.02539 0,0.01758 c 4.782243,4.272097 8.735015,9.403922 13.664063,13.515625 l 0,0.148437 0.359375,0.207031 0,0.152344 0.363281,0.208985 0,0.154296 0.367188,0.212891 0,0.154297 0.371093,0.214844 0,0.15625 0.376953,0.216796 0,0.160157 0.382813,0.220703 0,0.162109 0.384765,0.222657 0,0.162109 0.390626,0.224609 0,0.166016 0.394531,0.228516 0,0.166015 0.40039,0.230469 0,0.169922 0.404297,0.234375 0,0.169922 0.408203,0.236328 0,0.171875 0.414063,0.238281 0,0.175781 0.417969,0.242188 0,0.175781 0.421875,0.244141 0,0.177734 0.427734,0.246094 0,0.18164 0.431641,0.25 0,0.181641 0.435547,0.251953 0,0.183594 0.441406,0.253906 0,0.1875 0.445312,0.257813 0,0.1875 0.449219,0.259765 0,0.189453 0.455078,0.263672 0,0.191407 0.458985,0.265624 0,0.19336 0.46289,0.267578 0,0.195312 0.46875,0.271485 0,0.197265 L 35.708984,56 l 0,0.199219 0.476563,0.27539 0,0.201172 0.482422,0.279297 0,0.203125 0.486328,0.28125 0,0.205078 0.490234,0.283203 0,0.207032 0.496094,0.287109 0,0.208984 0.5,0.289063 0,0.210937 0.503906,0.291016 0,0.212891 0.509766,0.294922 0,0.214843 0.513672,0.296875 0,0.216797 0.517578,0.298828 0,0.21875 0.523437,0.302735 0,0.220703 0.527344,0.304687 0,0.222656 0.533203,0.308594 0,0.22461 0.535157,0.308593 0,0.226563 0.541015,0.3125 0,0.228516 0.546875,0.316406 0,0.230468 0.550781,0.31836 0,0.232422 0.554688,0.320312 0,0.234375 0.558594,0.322266 0,0.236328 0.564453,0.326172 0,0.238281 0.568359,0.328125 0,0.240235 0.574219,0.332031 0,0.242187 0.576172,0.332032 0,0.24414 0.582031,0.335938 0,0.248046 0.587891,0.339844 0,0.246094 L 62,77 l 12.990234,-7.5 0,-15 -0.585937,-0.337891 0,-0.248047 -0.583985,-0.33789 0,-0.246094 -0.576171,-0.332031 0,-0.244141 -0.574219,-0.332031 0,-0.242187 -0.56836,-0.328126 0,-0.240234 -0.564453,-0.326172 0,-0.238281 -0.558593,-0.322266 0,-0.236328 -0.554688,-0.320312 0,-0.234375 -0.550781,-0.31836 0,-0.232422 -0.544922,-0.314453 0,-0.232421 -0.542969,-0.3125 0,-0.228516 -0.535156,-0.308594 0,-0.226562 -0.533203,-0.308594 0,-0.22461 -0.527344,-0.304687 0,-0.222656 -0.523437,-0.302735 0,-0.220703 -0.517578,-0.298828 0,-0.21875 -0.513672,-0.296875 0,-0.216797 -0.509766,-0.294922 0,-0.214843 -0.503906,-0.291016 0,-0.212891 -0.5,-0.289062 0,-0.210938 -0.496094,-0.287109 0,-0.208984 -0.490234,-0.283204 0,-0.207031 -0.486328,-0.28125 0,-0.205078 -0.482422,-0.279297 0,-0.203125 -0.476563,-0.27539 0,-0.201172 -0.472656,-0.273438 0,-0.199219 -0.46875,-0.271484 0,-0.197266 -0.462891,-0.267578 0,-0.195312 -0.458984,-0.265625 0,-0.193359 -0.455078,-0.263672 0,-0.191407 -0.449219,-0.259765 0,-0.189453 -0.445313,-0.257813 0,-0.1875 -0.441406,-0.253906 0,-0.1875 -0.435547,-0.251953 0,-0.183594 -0.43164,-0.25 0,-0.181641 -0.427735,-0.246093 0,-0.181641 -0.421875,-0.244141 0,-0.177734 -0.417968,-0.242187 0,-0.175782 -0.414063,-0.238281 0,-0.175781 -0.408203,-0.236328 0,-0.171875 -0.404297,-0.234375 0,-0.169922 -0.40039,-0.230469 0,-0.169922 -0.394532,-0.228515 0,-0.166016 -0.390625,-0.22461 0,-0.166015 -0.384765,-0.222656 0,-0.16211 -0.382813,-0.220703 0,-0.162109 -0.375,-0.216797 0,-0.160156 -0.373047,-0.214844 0,-0.15625 -0.367187,-0.212891 0,-0.154297 -0.363281,-0.208984 0,-0.154297 -0.359376,-0.207031 0,-0.152344 -0.353515,-0.205078 0,-0.148438 -0.349609,-0.201171 0,-0.148438 -0.34375,-0.199219 0,-0.144531 -0.341797,-0.197265 0,-0.144532 -0.333985,-0.193359 0,-0.142578 -0.332031,-0.191407 0,-0.138671 -0.326172,-0.1875 0,-0.138672 -0.322265,-0.185547 0,-0.136719 -0.31836,-0.183594 0,-0.134765 -0.3125,-0.179688 0,-0.132812 -0.308594,-0.177735 0,-0.130859 -0.302734,-0.173828 0,-0.128906 -0.298828,-0.171875 0,-0.126953 -0.294922,-0.169922 0,-0.125 -0.291016,-0.167969 0,-0.123047 -0.285156,-0.164062 0,-0.121094 -0.279297,-0.16211 0,-0.11914 c -2.88682,-2.765601 -5.627209,-5.612386 -8.441408,-8.429721 l 0,-0.0098 -0.01953,-0.01172 0,-0.0078 -0.01563,-0.0098 0,-0.0059 -0.01172,-0.0059 0,-0.0059 -0.0078,-0.0039 0,-0.0039 -0.002,-0.002 -12.988281,-7.4980469 z"
     id="path5627"
     transform="matrix(1.200002,0,0,1.200002,-4.8000481,-4.8000465)" />
  <path
     inkscape:connector-curvature="0"
     id="path4259"
     d="m 24,7 c -4.508382,2e-4 -8.83356,1.7906156 -12.021484,4.978516 l 0,0.002 C 8.7907623,15.168469 7,19.4916 7,24 c 2.186e-4,4.5084 1.7905915,8.833584 4.978516,12.021484 l 0.002,0 c 0.0983,0.0983 0.206206,0.18367 0.30664,0.279297 3.519473,3.544164 7.043964,7.067434 10.5625,10.589844 0.08062,0.08061 0.169899,0.149698 0.251953,0.228516 0.08345,0.08707 0.156727,0.182116 0.242188,0.267578 0.08416,0.08415 0.177949,0.156085 0.263672,0.238281 0.07876,0.08199 0.147963,0.171401 0.228516,0.251953 0.08062,0.08061 0.169898,0.149696 0.251953,0.228516 0.08063,0.08402 0.151862,0.1753 0.234375,0.257812 0.078,0.078 0.164792,0.144384 0.24414,0.220703 0.08158,0.08504 0.152827,0.17822 0.236328,0.261719 l 0.002,0 c 0.07996,0.07996 0.168622,0.148368 0.25,0.226563 0.0782,0.08138 0.146601,0.170038 0.226562,0.25 0.07931,0.0793 0.167346,0.147039 0.248047,0.224609 0.07757,0.0807 0.145302,0.168739 0.224609,0.248047 0.0757,0.07569 0.159363,0.140733 0.236328,0.214844 0.07938,0.08266 0.14927,0.172707 0.230469,0.253906 l 0.002,0 c 0.07766,0.07765 0.163195,0.144712 0.242188,0.220703 0.07599,0.07899 0.143046,0.164531 0.220703,0.242187 0.077,0.077 0.161917,0.143385 0.240234,0.21875 0.07537,0.07832 0.141747,0.163232 0.21875,0.240235 0.07374,0.07373 0.15553,0.136752 0.230469,0.208984 0.07688,0.07995 0.14407,0.167508 0.222656,0.246094 l 0.002,0 c 0.07539,0.07538 0.159684,0.139076 0.236329,0.212891 0.07382,0.07664 0.137505,0.160943 0.21289,0.236328 0.07473,0.07473 0.158406,0.137749 0.234375,0.210937 0.07319,0.07597 0.136207,0.159644 0.210938,0.234375 0.07112,0.07112 0.150415,0.13145 0.222656,0.201172 0.07501,0.07793 0.14017,0.163608 0.216797,0.240234 l 0.002,0 c 0.07243,0.07243 0.152973,0.134099 0.226562,0.205079 0.07218,0.07488 0.135308,0.156792 0.208985,0.230468 0.07177,0.07177 0.151694,0.132776 0.224609,0.203125 0.07155,0.07421 0.134008,0.155491 0.207031,0.228516 0.06882,0.06881 0.144979,0.127806 0.214844,0.195312 0.0728,0.07555 0.136613,0.158099 0.210938,0.232422 0.07367,0.07367 0.155595,0.136813 0.230468,0.208985 0.06677,0.06907 0.125311,0.144842 0.19336,0.21289 0.07012,0.07012 0.147537,0.130453 0.21875,0.199219 0.06866,0.07109 0.129211,0.148743 0.199218,0.21875 0.06916,0.06916 0.146579,0.127476 0.216797,0.195313 0.06784,0.07022 0.126155,0.147639 0.195313,0.216797 l 0,0.002 c 0.06845,0.06844 0.14536,0.126206 0.214844,0.193359 0.06715,0.06948 0.124914,0.146399 0.193359,0.214844 l 0.002,0 c 0.06489,0.06489 0.137299,0.119865 0.203125,0.183594 0.06904,0.0715 0.128814,0.150296 0.199219,0.220703 l 0.002,0 c 0.06685,0.06685 0.14114,0.123833 0.208984,0.189453 0.06562,0.06784 0.1226,0.142129 0.189453,0.208984 0.06348,0.06348 0.134845,0.117319 0.199219,0.179688 0.06778,0.07015 0.126214,0.147699 0.195313,0.216796 0.0681,0.0681 0.14376,0.126539 0.21289,0.19336 0.06151,0.06345 0.115148,0.132726 0.177735,0.195312 l 0,0.002 c 0.06745,0.06745 0.142479,0.125214 0.210937,0.191406 0.06088,0.06278 0.113848,0.131426 0.175782,0.193359 0.0639,0.06389 0.134417,0.118874 0.199218,0.181641 0.06277,0.0648 0.117746,0.135322 0.181641,0.199218 0.06314,0.06314 0.133243,0.11765 0.197265,0.179688 0.06214,0.06413 0.116447,0.134025 0.179688,0.197266 0.05993,0.05992 0.126778,0.110987 0.1875,0.169922 0.06368,0.06577 0.118758,0.138287 0.183594,0.203124 l 0.002,0 c 0.06162,0.06162 0.130894,0.113254 0.193359,0.173829 0.06058,0.06246 0.112206,0.131737 0.173828,0.193359 0.06063,0.06063 0.128012,0.112263 0.189454,0.171875 0.0602,0.06206 0.112596,0.130173 0.173828,0.191406 0.05997,0.05997 0.126729,0.110942 0.1875,0.169922 0.05898,0.06077 0.109949,0.127529 0.169922,0.1875 l 0,0.002 c 0.05927,0.05927 0.125499,0.109671 0.185546,0.167969 0.0583,0.06005 0.108702,0.126281 0.167969,0.185547 0.05862,0.05861 0.124217,0.108351 0.183594,0.166016 0.05767,0.05938 0.107402,0.12498 0.166015,0.183593 0.06058,0.06057 0.128065,0.112314 0.189454,0.171875 0.05422,0.05572 0.101197,0.116824 0.15625,0.171875 0.05701,0.05701 0.119998,0.105993 0.177734,0.16211 0.05612,0.05774 0.105096,0.120719 0.162109,0.177734 0.05627,0.05627 0.118811,0.104762 0.175782,0.160156 0.05548,0.05707 0.103796,0.119421 0.160156,0.175781 0.05244,0.05244 0.111014,0.09676 0.164062,0.148438 0.05767,0.05938 0.107402,0.124979 0.166016,0.183594 l 0.002,0 c 0.05474,0.05474 0.116468,0.10038 0.171875,0.154297 0.05383,0.05532 0.09965,0.117222 0.154297,0.171875 0.05113,0.05113 0.108446,0.09412 0.160156,0.144531 0.05577,0.05737 0.103502,0.121079 0.160156,0.177734 l 0.002,0 c 0.05309,0.05309 0.112298,0.09808 0.166015,0.150391 0.05231,0.05372 0.0973,0.112924 0.150391,0.166016 0.05305,0.05305 0.112341,0.09812 0.166016,0.15039 0.05104,0.05238 0.0947,0.110327 0.146484,0.16211 l 0,0.002 c 0.05435,0.05435 0.114914,0.10076 0.169922,0.154297 0.04817,0.04935 0.08985,0.103518 0.138672,0.152343 0.04848,0.04847 0.103345,0.08889 0.152343,0.136719 0.0526,0.05402 0.097,0.11458 0.150391,0.167969 l 0.002,0 c 0.04982,0.04982 0.105877,0.09149 0.15625,0.140625 0.04973,0.051 0.09214,0.107766 0.142578,0.158203 0.04621,0.04621 0.09785,0.08524 0.144531,0.130859 0.05164,0.053 0.09605,0.111672 0.148438,0.164063 l 0.002,0 c 0.04852,0.04851 0.103307,0.08885 0.152344,0.136719 0.04787,0.04904 0.08821,0.10383 0.136719,0.152343 0.04813,0.04813 0.101742,0.08922 0.15039,0.136719 0.04689,0.04802 0.08725,0.10092 0.134766,0.148438 0.04744,0.04744 0.100498,0.08795 0.148437,0.134765 0.04626,0.04735 0.08595,0.09962 0.132813,0.146485 0.04359,0.04359 0.0927,0.07998 0.136719,0.123046 0.04846,0.04966 0.08955,0.105171 0.138671,0.154297 0.04552,0.04552 0.0966,0.08396 0.142579,0.128907 0.04494,0.04598 0.08339,0.09706 0.128906,0.142578 l 0.002,0 c 0.04194,0.04194 0.08852,0.07768 0.130859,0.11914 0.04686,0.04798 0.08729,0.100961 0.134766,0.148438 0.04682,0.04682 0.09917,0.08659 0.146484,0.132812 0.04082,0.04167 0.0759,0.08762 0.117188,0.128906 0.04325,0.04325 0.0911,0.08031 0.134765,0.123047 0.04274,0.04367 0.0798,0.09152 0.123047,0.134766 0.04229,0.04229 0.09013,0.07735 0.132813,0.119141 0.0424,0.04332 0.07819,0.09186 0.121094,0.134765 0.04163,0.04163 0.08884,0.07603 0.130859,0.117188 0.04116,0.04202 0.07556,0.08923 0.117187,0.130859 0.04091,0.04091 0.08762,0.07479 0.128907,0.115234 0.04052,0.04135 0.07426,0.08793 0.115234,0.128907 l 0,0.002 c 0.0429,0.0429 0.09145,0.0787 0.134766,0.121094 0.03698,0.03768 0.0681,0.07982 0.105469,0.117187 0.03637,0.03637 0.07662,0.06751 0.113281,0.103516 0.04206,0.04296 0.07853,0.09025 0.121093,0.132812 0.03864,0.03864 0.08212,0.07115 0.121094,0.109375 0.03823,0.03897 0.07073,0.08245 0.109375,0.121094 0.03799,0.03799 0.08083,0.06983 0.119141,0.107422 0.03759,0.03831 0.06943,0.08115 0.107422,0.11914 0.03995,0.03995 0.0847,0.07377 0.125,0.113282 0.03403,0.03461 0.0633,0.07307 0.09766,0.107422 0.03606,0.03606 0.07693,0.06586 0.113281,0.101562 0.03631,0.03698 0.06683,0.07855 0.103516,0.115234 0.03245,0.03245 0.06888,0.05964 0.101562,0.0918 0.03823,0.03897 0.07073,0.08245 0.109375,0.121094 0.03799,0.03799 0.08083,0.06983 0.119141,0.107422 0.03151,0.03202 0.05805,0.06782 0.08984,0.09961 0.0341,0.0341 0.07306,0.06193 0.107422,0.0957 0.03378,0.03436 0.06161,0.07332 0.0957,0.107421 0.0331,0.0331 0.07017,0.06095 0.103515,0.09375 0.03339,0.03395 0.062,0.07177 0.0957,0.105469 0.03245,0.03245 0.06888,0.05964 0.101563,0.0918 0.03216,0.03268 0.05935,0.06912 0.0918,0.101563 0.03179,0.03179 0.06759,0.05833 0.09961,0.08984 0.03151,0.03202 0.05805,0.06782 0.08984,0.09961 0.03111,0.03111 0.06633,0.05704 0.09766,0.08789 0.03085,0.03133 0.05678,0.06654 0.08789,0.09766 0.03014,0.03014 0.06341,0.05604 0.09375,0.08594 0.02989,0.03034 0.0558,0.06361 0.08594,0.09375 0.02944,0.02944 0.06216,0.05478 0.0918,0.08398 0.02925,0.02968 0.0545,0.06231 0.08398,0.0918 0.02879,0.02879 0.06087,0.05347 0.08984,0.08203 0.02861,0.02902 0.0532,0.06101 0.08203,0.08984 0.02787,0.02787 0.05985,0.05047 0.08789,0.07813 0.02766,0.02804 0.05026,0.06002 0.07813,0.08789 0.02717,0.02717 0.0586,0.0492 0.08594,0.07617 0.02701,0.02738 0.04896,0.05872 0.07617,0.08594 0.02683,0.02683 0.057,0.04954 0.08398,0.07617 0.02603,0.02637 0.048,0.05581 0.07422,0.08203 0.02557,0.02557 0.05437,0.04688 0.08008,0.07227 0.02538,0.02571 0.0467,0.05451 0.07227,0.08008 0.02487,0.02487 0.05312,0.04561 0.07812,0.07031 0.02474,0.02505 0.0454,0.05321 0.07031,0.07813 0.02422,0.02422 0.05182,0.0443 0.07617,0.06836 0.0241,0.02439 0.0441,0.05191 0.06836,0.07617 0.02326,0.02326 0.04888,0.0433 0.07227,0.06641 0.02311,0.02338 0.04315,0.049 0.06641,0.07227 0.02257,0.02257 0.04763,0.04202 0.07031,0.06445 0.02247,0.02272 0.04185,0.04771 0.06445,0.07031 0.02192,0.02192 0.04633,0.04072 0.06836,0.0625 0.02182,0.02206 0.04055,0.04641 0.0625,0.06836 0.02099,0.02099 0.04532,0.03773 0.06641,0.05859 0.02087,0.02109 0.03761,0.04542 0.05859,0.06641 0.02063,0.02063 0.04373,0.03808 0.06445,0.05859 0.01988,0.02008 0.03665,0.04251 0.05664,0.0625 0.01998,0.01998 0.04243,0.03678 0.0625,0.05664 0.0192,0.01939 0.03538,0.04124 0.05469,0.06055 0.01868,0.01868 0.03983,0.03415 0.05859,0.05273 0.01859,0.01876 0.03405,0.03991 0.05273,0.05859 0.01803,0.01803 0.03854,0.03284 0.05664,0.05078 0.01794,0.0181 0.03275,0.03861 0.05078,0.05664 0.01376,0.01376 0.02916,0.02535 0.04297,0.03906 0.02051,0.02072 0.03797,0.04383 0.05859,0.06445 0.01997,0.01997 0.04244,0.03678 0.0625,0.05664 0.01306,0.01315 0.024,0.02791 0.03711,0.04102 0.01572,0.01573 0.03305,0.02926 0.04883,0.04492 0.01564,0.01577 0.02921,0.03311 0.04492,0.04883 0.0118,0.0118 0.02528,0.02144 0.03711,0.0332 0.01792,0.01809 0.03277,0.03863 0.05078,0.05664 0.01736,0.01736 0.03726,0.03155 0.05469,0.04883 0.0111,0.01116 0.02012,0.02403 0.03125,0.03516 0.01015,0.01015 0.02108,0.01917 0.03125,0.0293 0.01629,0.01642 0.03051,0.03442 0.04687,0.05078 0.01571,0.01571 0.03306,0.02928 0.04883,0.04492 0.0095,0.0095 0.01785,0.0198 0.02734,0.0293 0.0088,0.0088 0.01849,0.01658 0.02734,0.02539 0.015,0.01511 0.02791,0.03182 0.04297,0.04687 0.0144,0.0144 0.03047,0.02667 0.04492,0.04102 0.0075,0.0075 0.01395,0.0159 0.02148,0.02344 l 0,0.002 c 0.01375,0.01375 0.02918,0.02536 0.04297,0.03906 0.0069,0.0069 0.01265,0.0146 0.01953,0.02148 0.0095,0.0095 0.01978,0.01787 0.0293,0.02734 0.0095,0.0095 0.01785,0.0198 0.02734,0.0293 0.0088,0.0088 0.01848,0.01657 0.02734,0.02539 0.0088,0.0089 0.01655,0.0185 0.02539,0.02734 0.0049,0.0049 0.0107,0.0088 0.01563,0.01367 0.0111,0.01117 0.02011,0.02402 0.03125,0.03516 0.01049,0.01049 0.02269,0.01884 0.0332,0.0293 0.0043,0.0043 0.0075,0.0094 0.01172,0.01367 0.0062,0.0062 0.01329,0.01136 0.01953,0.01758 0.0069,0.0069 0.01266,0.01461 0.01953,0.02148 0.0056,0.0056 0.012,0.01006 0.01758,0.01563 0.0056,0.0056 0.01005,0.012 0.01563,0.01758 l 0.0059,0.0059 c 0.0082,0.0082 0.01526,0.01721 0.02344,0.02539 0.0075,0.0075 0.0159,0.01397 0.02344,0.02148 l 0.002,0.002 c 0.0036,0.0036 0.0081,0.0062 0.01172,0.0098 0.0036,0.0036 0.0062,0.0081 0.0098,0.01172 l 0.0078,0.0078 0.0078,0.0078 0.0059,0.0059 0.0059,0.0059 0.0059,0.0059 c 9.97e-4,9.97e-4 9.57e-4,0.0029 0.002,0.0039 0.395248,0.395247 0.809928,0.767589 1.238281,1.119141 0.0028,0.0023 0.005,0.0055 0.0078,0.0078 7.09e-4,5.8e-4 0.0012,0.0014 0.002,0.002 1.295784,1.061704 2.734195,1.918116 4.265626,2.552734 8e-4,3.32e-4 0.0012,0.0016 0.002,0.002 0.510037,0.211175 1.029839,0.397852 1.558593,0.558594 0.0014,4.21e-4 0.0025,0.0015 0.0039,0.002 C 58.645296,78.748589 60.309245,79 62,79 66.50868,79 70.833366,77.209584 74.021484,74.021484 77.209603,70.833384 79,66.5087 79,62 c 0,-1.690763 -0.251416,-3.354705 -0.734375,-4.943359 -0.161267,-0.530953 -0.350387,-1.052369 -0.5625,-1.564453 -0.634614,-1.531428 -1.491027,-2.969848 -2.552734,-4.265626 -0.0029,-0.0035 -0.0069,-0.0062 -0.0098,-0.0098 -0.351553,-0.428351 -0.723892,-0.843035 -1.119141,-1.238281 -9.96e-4,-9.97e-4 -0.0029,-9.57e-4 -0.0039,-0.002 l -0.0059,-0.0059 -0.0059,-0.0059 -0.0039,-0.0039 -0.002,-0.002 -0.0078,-0.0078 -0.0078,-0.0078 c -0.0036,-0.0036 -0.0081,-0.0062 -0.01172,-0.0098 -0.0036,-0.0036 -0.0062,-0.0081 -0.0098,-0.01172 l -0.002,-0.002 c -0.0075,-0.0075 -0.01396,-0.01591 -0.02148,-0.02344 -0.01014,-0.01014 -0.02108,-0.01918 -0.03125,-0.0293 -0.01141,-0.01148 -0.02175,-0.02371 -0.0332,-0.03516 -0.01275,-0.01275 -0.02627,-0.0244 -0.03906,-0.03711 -0.0043,-0.0043 -0.0094,-0.0075 -0.01367,-0.01172 -0.01045,-0.01051 -0.01881,-0.02272 -0.0293,-0.0332 -0.01114,-0.01114 -0.02399,-0.02015 -0.03516,-0.03125 -0.0049,-0.0049 -0.0088,-0.01071 -0.01367,-0.01563 -0.0088,-0.0088 -0.01848,-0.01657 -0.02734,-0.02539 -0.0088,-0.0089 -0.01655,-0.0185 -0.02539,-0.02734 -0.0095,-0.0095 -0.01978,-0.01787 -0.0293,-0.02734 -0.0095,-0.0095 -0.01785,-0.0198 -0.02734,-0.0293 -0.0069,-0.0069 -0.01459,-0.01266 -0.02148,-0.01953 -0.0137,-0.01379 -0.02531,-0.02922 -0.03906,-0.04297 -0.01114,-0.01114 -0.02399,-0.02015 -0.03516,-0.03125 -0.0111,-0.01117 -0.02011,-0.02402 -0.03125,-0.03516 -0.01506,-0.01506 -0.03177,-0.02797 -0.04687,-0.04297 -0.0088,-0.0089 -0.01655,-0.01851 -0.02539,-0.02734 -0.0095,-0.0095 -0.01978,-0.01787 -0.0293,-0.02734 -0.01564,-0.01577 -0.02921,-0.03312 -0.04492,-0.04883 -0.01636,-0.01636 -0.03436,-0.03058 -0.05078,-0.04687 -0.01012,-0.01017 -0.01915,-0.0211 -0.0293,-0.03125 -0.01113,-0.01113 -0.024,-0.02015 -0.03516,-0.03125 -0.01728,-0.01743 -0.03147,-0.03733 -0.04883,-0.05469 -0.01801,-0.01801 -0.03856,-0.03286 -0.05664,-0.05078 -0.01176,-0.01183 -0.0214,-0.02531 -0.0332,-0.03711 -0.01571,-0.01571 -0.03306,-0.02928 -0.04883,-0.04492 -0.01566,-0.01578 -0.0292,-0.0331 -0.04492,-0.04883 -0.01311,-0.01311 -0.02787,-0.02405 -0.04102,-0.03711 -0.01986,-0.02006 -0.03667,-0.04253 -0.05664,-0.0625 -0.02063,-0.02063 -0.04373,-0.03808 -0.06445,-0.05859 -0.01371,-0.0138 -0.0253,-0.0292 -0.03906,-0.04297 -0.01803,-0.01803 -0.03854,-0.03284 -0.05664,-0.05078 -0.01794,-0.0181 -0.03275,-0.03861 -0.05078,-0.05664 -0.01868,-0.01868 -0.03983,-0.03415 -0.05859,-0.05273 -0.01859,-0.01876 -0.03405,-0.03991 -0.05273,-0.05859 -0.01931,-0.01931 -0.04116,-0.03548 -0.06055,-0.05469 -0.01987,-0.02007 -0.03666,-0.04252 -0.05664,-0.0625 -0.01999,-0.01999 -0.04242,-0.03676 -0.0625,-0.05664 -0.02051,-0.02072 -0.03796,-0.04382 -0.05859,-0.06445 -0.02099,-0.02099 -0.04532,-0.03773 -0.06641,-0.05859 -0.02087,-0.02109 -0.0376,-0.04542 -0.05859,-0.06641 -0.02195,-0.02195 -0.0463,-0.04068 -0.06836,-0.0625 -0.0218,-0.02204 -0.04056,-0.04642 -0.0625,-0.06836 -0.02261,-0.02261 -0.04759,-0.04199 -0.07031,-0.06445 -0.02243,-0.02268 -0.04188,-0.04774 -0.06445,-0.07031 -0.02326,-0.02326 -0.04888,-0.0433 -0.07227,-0.06641 -0.02311,-0.02338 -0.04315,-0.04901 -0.06641,-0.07227 -0.02426,-0.02426 -0.05178,-0.04426 -0.07617,-0.06836 -0.02406,-0.02435 -0.04414,-0.05195 -0.06836,-0.07617 -0.02491,-0.02491 -0.05308,-0.04557 -0.07813,-0.07031 -0.0247,-0.02501 -0.04544,-0.05325 -0.07031,-0.07812 -0.02557,-0.02557 -0.05437,-0.04688 -0.08008,-0.07227 -0.02538,-0.02571 -0.0467,-0.05451 -0.07227,-0.08008 -0.02622,-0.02622 -0.05566,-0.04819 -0.08203,-0.07422 -0.02663,-0.02699 -0.04934,-0.05716 -0.07617,-0.08398 -0.02722,-0.02722 -0.05856,-0.04916 -0.08594,-0.07617 -0.02697,-0.02734 -0.049,-0.05877 -0.07617,-0.08594 -0.02787,-0.02787 -0.05985,-0.05047 -0.08789,-0.07813 -0.02766,-0.02804 -0.05026,-0.06002 -0.07813,-0.08789 -0.02883,-0.02884 -0.06082,-0.05343 -0.08984,-0.08203 -0.02856,-0.02897 -0.05325,-0.06106 -0.08203,-0.08984 -0.02918,-0.02918 -0.06243,-0.05309 -0.0918,-0.08203 -0.02956,-0.03001 -0.05418,-0.06394 -0.08398,-0.09375 -0.03014,-0.03014 -0.06341,-0.05604 -0.09375,-0.08594 -0.02989,-0.03034 -0.0558,-0.06361 -0.08594,-0.09375 -0.03143,-0.03142 -0.06601,-0.05869 -0.09766,-0.08984 -0.03054,-0.03101 -0.05709,-0.06491 -0.08789,-0.0957 -0.03179,-0.03179 -0.06759,-0.05833 -0.09961,-0.08984 -0.03151,-0.03202 -0.05805,-0.06782 -0.08984,-0.09961 -0.03245,-0.03245 -0.06888,-0.05964 -0.101563,-0.0918 -0.03216,-0.03268 -0.05935,-0.06912 -0.0918,-0.101563 -0.0337,-0.0337 -0.07152,-0.06232 -0.105469,-0.0957 -0.0328,-0.03334 -0.06065,-0.07042 -0.09375,-0.103515 -0.0341,-0.0341 -0.07306,-0.06193 -0.107421,-0.0957 -0.03378,-0.03436 -0.06161,-0.07332 -0.0957,-0.107422 -0.03179,-0.03179 -0.06759,-0.05833 -0.09961,-0.08984 -0.03759,-0.03831 -0.06943,-0.08115 -0.107422,-0.119141 -0.03864,-0.03864 -0.08212,-0.07115 -0.121094,-0.109375 -0.03216,-0.03268 -0.05935,-0.06912 -0.0918,-0.101562 -0.03668,-0.03668 -0.07825,-0.0672 -0.115234,-0.103516 -0.0357,-0.03635 -0.0655,-0.07722 -0.101562,-0.113281 -0.03435,-0.03435 -0.07281,-0.06363 -0.107422,-0.09766 -0.03951,-0.0403 -0.07333,-0.08505 -0.113282,-0.125 l -0.002,0 c -0.03506,-0.03506 -0.07404,-0.06489 -0.109375,-0.09961 -0.04015,-0.04097 -0.07463,-0.08635 -0.115234,-0.126953 -0.03864,-0.03864 -0.08212,-0.07115 -0.121094,-0.109375 -0.03823,-0.03897 -0.07073,-0.08245 -0.109375,-0.121094 -0.04256,-0.04256 -0.08985,-0.07903 -0.132812,-0.121093 -0.03601,-0.03666 -0.06715,-0.07691 -0.103516,-0.113281 -0.03998,-0.03998 -0.08466,-0.07374 -0.125,-0.113282 -0.04012,-0.04093 -0.07466,-0.08638 -0.115234,-0.126953 -0.04098,-0.04098 -0.08755,-0.07472 -0.128907,-0.115234 -0.04045,-0.04128 -0.07432,-0.08799 -0.115234,-0.128907 -0.04163,-0.04163 -0.08884,-0.07603 -0.130859,-0.117187 -0.04116,-0.04202 -0.07555,-0.08922 -0.117188,-0.130859 -0.04253,-0.04253 -0.08988,-0.07907 -0.132812,-0.121094 -0.0421,-0.043 -0.0785,-0.09022 -0.121094,-0.132813 -0.04325,-0.04325 -0.0911,-0.08031 -0.134766,-0.123047 -0.04274,-0.04367 -0.0798,-0.09151 -0.123047,-0.134765 -0.04126,-0.04126 -0.08727,-0.0764 -0.128906,-0.117188 -0.04622,-0.04731 -0.08599,-0.09966 -0.132812,-0.146484 -0.04748,-0.04747 -0.10046,-0.08791 -0.148438,-0.134766 -0.04146,-0.04233 -0.0772,-0.08892 -0.11914,-0.130859 l 0,-0.002 c -0.04552,-0.04552 -0.0966,-0.08396 -0.142578,-0.128906 -0.04495,-0.04598 -0.08339,-0.09706 -0.128907,-0.142579 -0.04913,-0.04912 -0.104635,-0.09021 -0.154297,-0.138671 -0.04307,-0.04402 -0.07945,-0.09313 -0.123046,-0.136719 -0.04686,-0.04686 -0.09913,-0.08655 -0.146485,-0.132813 -0.04682,-0.04794 -0.08733,-0.100996 -0.134765,-0.148437 -0.04786,-0.04786 -0.102022,-0.08754 -0.150391,-0.134766 -0.04723,-0.04837 -0.08691,-0.10253 -0.134766,-0.15039 -0.04556,-0.04556 -0.09656,-0.08392 -0.142578,-0.128907 -0.051,-0.05233 -0.09475,-0.11037 -0.146484,-0.162109 -0.05239,-0.05239 -0.111061,-0.0968 -0.164063,-0.148438 -0.04562,-0.04668 -0.08465,-0.09832 -0.130859,-0.144531 -0.04744,-0.04744 -0.100498,-0.08795 -0.148438,-0.134765 -0.05227,-0.05367 -0.09734,-0.11297 -0.15039,-0.166016 -0.0537,-0.0537 -0.11363,-0.09944 -0.167969,-0.152344 -0.04753,-0.04869 -0.08855,-0.102219 -0.136719,-0.15039 -0.05178,-0.05178 -0.10973,-0.09544 -0.162109,-0.146485 -0.05096,-0.05229 -0.09479,-0.11041 -0.146484,-0.162109 -0.05244,-0.05244 -0.111015,-0.09676 -0.164063,-0.148438 -0.05168,-0.05305 -0.096,-0.111625 -0.148437,-0.164062 -0.05048,-0.05047 -0.107162,-0.09281 -0.158204,-0.142578 -0.05514,-0.0567 -0.102201,-0.11978 -0.158203,-0.175782 -0.05665,-0.05665 -0.120367,-0.104387 -0.177734,-0.160156 -0.05041,-0.05171 -0.0934,-0.109026 -0.144531,-0.160156 -0.05201,-0.05201 -0.1095,-0.09718 -0.16211,-0.148438 -0.0567,-0.05836 -0.106443,-0.122067 -0.164062,-0.179687 C 62.124979,38.08201 62.059377,38.032277 62,37.974609 c -0.05168,-0.05305 -0.096,-0.111625 -0.148438,-0.164062 -0.05571,-0.05571 -0.117432,-0.103353 -0.173828,-0.158203 -0.05608,-0.05769 -0.105138,-0.120763 -0.162109,-0.177735 -0.05701,-0.05701 -0.119999,-0.105992 -0.177734,-0.162109 -0.05612,-0.05774 -0.105095,-0.12072 -0.16211,-0.177734 -0.05505,-0.05505 -0.116149,-0.102034 -0.171875,-0.15625 -0.05956,-0.06139 -0.1113,-0.128879 -0.171875,-0.189454 l -0.002,0 c -0.05571,-0.05571 -0.117433,-0.103353 -0.173828,-0.158203 -0.0602,-0.06206 -0.1126,-0.130178 -0.173828,-0.191406 -0.06222,-0.06222 -0.13223,-0.114626 -0.195313,-0.175781 -0.05573,-0.05732 -0.103545,-0.121124 -0.160156,-0.177734 -0.05997,-0.05997 -0.126729,-0.110943 -0.1875,-0.169922 -0.05898,-0.06077 -0.109948,-0.127527 -0.169922,-0.1875 l 0,-0.002 c -0.06353,-0.06353 -0.134793,-0.117273 -0.199219,-0.179687 -0.05708,-0.05876 -0.10605,-0.123629 -0.164062,-0.181641 -0.05888,-0.05888 -0.123945,-0.110046 -0.183594,-0.167968 -0.06335,-0.06542 -0.119099,-0.136676 -0.183594,-0.201172 -0.06549,-0.06549 -0.138637,-0.121241 -0.205078,-0.185547 -0.05835,-0.0601 -0.108649,-0.126228 -0.167968,-0.185547 -0.06259,-0.06259 -0.131856,-0.116228 -0.195313,-0.177734 -0.06272,-0.06475 -0.117794,-0.135371 -0.181641,-0.199219 -0.0639,-0.06389 -0.134417,-0.118872 -0.199218,-0.181641 -0.06277,-0.0648 -0.117744,-0.135322 -0.181641,-0.199218 -0.0655,-0.06549 -0.138632,-0.121238 -0.205078,-0.185547 -0.063,-0.06505 -0.117506,-0.137038 -0.181641,-0.201172 -0.06259,-0.06258 -0.131855,-0.11623 -0.195312,-0.177735 -0.06683,-0.06913 -0.125255,-0.144787 -0.19336,-0.21289 l -0.002,0 c -0.0662,-0.0662 -0.139859,-0.122512 -0.207031,-0.1875 -0.06499,-0.06717 -0.121299,-0.140829 -0.1875,-0.207032 -0.06424,-0.06424 -0.136018,-0.118541 -0.201172,-0.18164 -0.06841,-0.07083 -0.127512,-0.148995 -0.197265,-0.21875 -0.06779,-0.06779 -0.14408,-0.124882 -0.212891,-0.191406 C 56.058376,32.03466 56.001294,31.958374 55.9335,31.890579 49.300154,25.240329 42.622776,18.642975 36.021343,11.978329 l -0.002,0 C 32.831468,8.7907156 28.508405,7 24,7 Z"
     style="opacity:1;fill:url(#linearGradient5604);fill-opacity:1;stroke:none;stroke-width:0.88582677;stroke-miterlimit:4;stroke-dasharray:7.08661413, 7.08661413;stroke-dashoffset:0"
     clip-path="url(#clipPath6742)"
     transform="matrix(1.200002,0,0,1.200002,-4.8000481,-4.8000465)" />
  <path
     inkscape:connector-curvature="0"
     transform="matrix(1.200002,0,0,-1.200002,-4.8000481,-1210.0367)"
     style="opacity:1;fill:#8bc34a;fill-opacity:1;stroke:none;stroke-width:0.88582677;stroke-miterlimit:4;stroke-dasharray:7.08661413, 7.08661413;stroke-dashoffset:0;filter:url(#filter6536)"
     d="m 41,-1028.3622 a 17,17 0 0 1 -17,17 17,17 0 0 1 -17,-17 17,17 0 0 1 17,-17 17,17 0 0 1 17,17 z"
     id="path3340" />
  <path
     inkscape:connector-curvature="0"
     style="opacity:1;fill:#20bd00;fill-opacity:0.45945949;stroke:none;stroke-width:0.88582677;stroke-miterlimit:4;stroke-dasharray:7.08661413, 7.08661413;stroke-dashoffset:0;filter:url(#filter6536)"
     id="path3350"
     d="m 36.990381,-1020.8622 -12.990381,7.5 -12.990381,-7.5 0,-15 12.990381,-7.5 12.990381,7.5 z"
     transform="matrix(1.200002,0,0,-1.200002,-4.8000481,-1210.0367)" />
  <path
     inkscape:connector-curvature="0"
     style="opacity:1;fill:#fffff7;fill-opacity:0;stroke:none;stroke-width:0.88582677;stroke-miterlimit:4;stroke-dasharray:7.08661413, 7.08661413;stroke-dashoffset:0;filter:url(#filter6536)"
     id="path3348"
     d="m 36,-1021.3622 -24,0 12,-20.7846 z"
     transform="matrix(1.200002,0,0,-1.200002,-4.8000481,-1210.0367)" />
</svg>
