<?xml version="1.0" standalone="no"?>
<!DOCTYPE svg PUBLIC "-//W3C//DTD SVG 20010904//EN"
 "http://www.w3.org/TR/2001/REC-SVG-20010904/DTD/svg10.dtd">
<svg version="1.0" xmlns="http://www.w3.org/2000/svg"
 width="700.000000pt" height="700.000000pt" viewBox="0 0 700.000000 700.000000"
 preserveAspectRatio="xMidYMid meet">
<metadata>
Created by potrace 1.11, written by Peter Selinger 2001-2013
</metadata>
<g transform="translate(0.000000,700.000000) scale(0.100000,-0.100000)"
fill="#000000" stroke="none">
<path d="M3308 6996 c-1 -2 -42 -6 -89 -10 -47 -4 -95 -8 -107 -11 -11 -2 -42
-7 -69 -11 -26 -3 -57 -8 -68 -10 -11 -2 -47 -9 -80 -15 -308 -55 -706 -205
-1030 -389 -294 -167 -549 -364 -805 -620 -201 -201 -334 -365 -479 -587 -120
-184 -130 -201 -208 -353 -170 -329 -296 -718 -338 -1040 -4 -30 -9 -64 -11
-75 -25 -128 -25 -628 0 -761 2 -10 7 -39 10 -64 97 -642 394 -1271 851 -1796
76 -88 304 -316 374 -374 30 -25 59 -50 65 -55 31 -30 234 -181 326 -242 292
-194 660 -368 950 -449 183 -51 358 -90 450 -99 19 -2 48 -6 65 -9 79 -15 188
-20 380 -21 181 0 367 10 385 20 3 1 30 5 60 9 30 3 78 11 105 16 28 5 61 12
75 14 142 25 425 111 600 183 358 148 732 380 1028 639 116 102 295 285 396
404 119 141 112 132 163 202 388 527 623 1127 681 1738 14 147 7 509 -11 640
-2 14 -8 50 -12 80 -4 30 -9 64 -11 75 -117 632 -389 1195 -829 1711 -48 56
-299 310 -361 365 -296 262 -681 502 -1049 654 -166 68 -449 155 -590 180
-156 28 -198 34 -250 40 -33 4 -69 9 -80 12 -23 5 -481 13 -487 9z m1637
-1131 c23 -39 120 -205 215 -370 95 -165 239 -415 320 -555 81 -140 157 -271
167 -290 11 -19 79 -136 150 -260 72 -124 140 -241 150 -260 11 -19 62 -107
113 -195 136 -233 193 -334 224 -388 l26 -48 -61 -107 c-104 -179 -131 -226
-151 -262 -11 -19 -44 -75 -73 -125 -29 -49 -63 -110 -77 -135 -23 -41 -229
-397 -267 -461 -21 -35 -142 -248 -156 -274 -6 -11 -23 -38 -36 -60 -14 -22
-29 -47 -32 -55 -4 -8 -17 -31 -28 -50 -12 -19 -125 -215 -251 -435 -127 -220
-240 -416 -253 -435 l-22 -35 -1401 0 c-912 0 -1404 4 -1410 10 -8 8 -256 436
-418 718 -21 38 -47 83 -58 100 -10 18 -88 154 -174 302 -225 391 -468 810
-507 876 -5 10 -17 30 -26 46 -8 15 -61 108 -118 205 l-102 177 81 142 c45 78
90 156 100 173 92 161 288 499 307 528 12 21 23 40 23 42 0 2 29 53 64 113 55
95 253 435 308 533 62 107 409 709 456 790 30 52 61 100 67 105 8 7 492 10
1410 10 l1399 0 41 -70z"/>
<path d="M2189 5497 c-2 -102 0 -4009 3 -4012 1 -2 28 12 58 30 30 19 66 40
80 47 23 13 701 404 1120 646 215 125 657 380 695 402 35 20 735 424 780 450
17 10 75 43 130 75 55 31 115 66 133 76 17 11 49 29 70 40 20 12 89 52 152 88
63 37 150 87 192 112 43 24 78 47 78 50 0 3 -10 11 -22 17 -29 15 -57 31 -515
296 -208 120 -397 229 -420 242 -23 13 -93 54 -155 91 -62 36 -129 75 -148 85
-19 11 -44 25 -55 31 -11 7 -56 33 -100 58 -44 25 -152 87 -240 139 -194 112
-394 228 -455 262 -25 14 -83 48 -130 75 -47 28 -101 59 -120 70 -33 19 -949
547 -1072 619 -57 33 -58 33 -59 11z"/>
</g>
</svg>
