<?xml version="1.0" standalone="no"?>
<!DOCTYPE svg PUBLIC "-//W3C//DTD SVG 20010904//EN"
 "http://www.w3.org/TR/2001/REC-SVG-20010904/DTD/svg10.dtd">
<svg version="1.0" xmlns="http://www.w3.org/2000/svg"
 width="700.000000pt" height="700.000000pt" viewBox="0 0 700.000000 700.000000"
 preserveAspectRatio="xMidYMid meet">
<metadata>
Created by potrace 1.11, written by Peter Selinger 2001-2013
</metadata>
<g transform="translate(0.000000,700.000000) scale(0.100000,-0.100000)"
fill="#000000" stroke="none">
<path d="M3457 6854 c-1 -1 -63 -4 -137 -7 -115 -5 -291 -25 -380 -42 -14 -3
-41 -8 -60 -11 -95 -16 -300 -71 -430 -114 -740 -244 -1363 -728 -1773 -1375
-90 -142 -214 -381 -270 -520 -24 -60 -48 -119 -52 -130 -5 -11 -9 -22 -10
-25 -1 -3 -16 -50 -34 -105 -18 -55 -34 -107 -36 -115 -2 -8 -17 -69 -33 -135
-17 -66 -33 -136 -36 -155 -3 -19 -8 -44 -10 -55 -12 -63 -33 -226 -41 -319
-8 -95 -8 -383 -1 -481 82 -1035 625 -1976 1469 -2541 485 -326 1058 -524
1642 -569 94 -8 384 -8 470 0 81 7 165 15 195 20 14 2 69 11 124 20 432 68
928 265 1303 516 558 373 960 860 1228 1485 69 160 156 427 179 544 2 14 11
54 20 90 8 36 17 83 21 105 3 22 10 67 15 100 9 58 13 99 26 230 7 73 6 389 0
465 -19 199 -31 285 -62 440 -97 474 -305 936 -608 1350 -111 152 -327 383
-466 500 -36 30 -67 58 -70 61 -8 10 -126 99 -210 159 -173 124 -473 287 -660
359 -47 18 -98 39 -115 46 -98 42 -376 119 -541 150 -117 21 -134 24 -194 31
-30 3 -66 7 -80 10 -44 7 -377 23 -383 18z m1392 -1030 c7 -7 118 -197 295
-506 28 -48 295 -511 663 -1148 176 -305 331 -573 343 -595 12 -22 26 -44 31
-49 5 -6 9 -16 9 -22 0 -7 -62 -120 -138 -251 -76 -131 -219 -377 -317 -548
-98 -170 -191 -331 -206 -356 -16 -25 -29 -49 -29 -53 0 -4 -8 -19 -19 -34
-17 -24 -199 -338 -233 -402 -7 -14 -26 -44 -41 -67 -15 -24 -27 -45 -27 -47
0 -3 -36 -66 -80 -142 -44 -75 -80 -138 -80 -139 0 -2 -22 -39 -48 -82 -26
-43 -51 -85 -54 -94 -3 -8 -22 -40 -41 -70 l-34 -54 -1339 2 c-737 0 -1342 2
-1346 2 -3 1 -59 92 -124 203 -64 112 -148 255 -185 319 -38 64 -69 120 -69
123 0 3 -15 29 -33 58 -19 29 -47 78 -64 108 -17 30 -106 186 -198 345 -445
768 -675 1169 -675 1178 0 5 8 21 19 35 10 15 20 32 22 37 4 10 82 148 99 175
12 18 236 406 272 470 25 45 57 100 231 400 49 85 98 169 107 186 21 36 170
295 196 341 46 79 231 400 253 437 59 104 106 184 126 216 l22 35 1342 -1
c813 0 1345 -4 1350 -10z"/>
<path d="M2334 3500 c0 -924 1 -1680 2 -1680 2 0 76 42 166 94 355 204 696
401 904 522 121 70 239 138 264 152 25 14 86 48 135 77 50 29 106 62 125 73
19 11 220 126 445 257 226 130 430 249 455 263 25 14 68 38 95 54 28 16 57 33
65 38 8 5 67 39 130 76 63 36 117 68 119 70 5 5 -24 28 -59 46 -27 14 -146 83
-170 98 -8 6 -22 13 -30 17 -8 4 -105 59 -215 123 -110 64 -220 128 -245 142
-35 19 -609 351 -787 454 -83 49 -262 152 -303 174 -25 14 -76 44 -115 67
-152 89 -974 563 -977 563 -2 0 -4 -756 -4 -1680z"/>
</g>
</svg>
