<svg version="1" xmlns="http://www.w3.org/2000/svg" width="933.333" height="933.333" viewBox="0 0 700.000000 700.000000"><path d="M329.8 65.5c-.2.2-3.3.5-7 .9-8.5.8-15 1.7-28.2 4.1-4.7.9-15.9 3.5-19.1 4.5-35.8 11-58.2 21.2-84 38.3-8 5.4-20.2 14.2-21.5 15.7-.3.3-3.6 3.2-7.5 6.4-9.7 8.3-24.3 23.4-32.9 34.1-10.4 12.8-16.2 21.1-24.1 34.3-12.9 21.4-26 53.1-32 77.2-1.7 6.8-5.5 26.7-6 31.5-.4 3.3-1.1 9.4-1.5 13.5-1 9.8-1 40.6.1 49.5.4 3.8 1.1 9 1.4 11.5 4 33.7 18.1 75 36 105.7 5.5 9.3 16.6 26.4 18.9 29 .6.7 1.6 1.8 2.1 2.5 12.6 16.6 27.2 31.5 48.9 49.7 3.9 3.2 22.8 16.1 29.6 20.2 28.4 16.9 68.3 31.8 97.7 36.5 1.9.3 4.5.8 5.7 1 1.1.2 4.1.7 6.6.9 2.5.3 7.7 1 11.5 1.5 6.9.9 50.1.6 54-.3 1.1-.3 4.5-.8 7.5-1.1 16.3-1.9 46.2-9 57.5-13.6 1.1-.4 7.4-2.9 14-5.5 27-10.7 55.9-28.2 79-48 7.8-6.6 22.9-21.7 28.5-28.4 2.5-3 5-5.9 5.5-6.5 2.4-2.5 10.6-13.7 16.1-22.1 16.6-24.9 28.8-51.4 37.2-80.5 1.7-5.8 3.3-11.6 3.6-13 .2-1.4.9-4.5 1.4-7 1.7-7.4 3.1-15.2 3.7-20 .3-2.5.8-6.3 1.1-8.5 1-6.5 1.3-47.5.4-54.5-.4-3.6-1.1-9.2-1.5-12.5-.3-3.3-1-7.8-1.5-10s-1.1-5.5-1.5-7.2c-2.5-14.8-11-42.1-17.4-56.8-15.9-35.9-35.3-64.6-60.8-90.1-6.2-6.1-14.7-14-19-17.4-4.3-3.4-8.8-7.1-10.1-8.1-9.8-8.3-38.1-24.9-55.7-32.7-17.8-8-44.6-16.7-57.5-18.8-1.9-.3-3.8-.8-4.2-1-.3-.2-2.8-.7-5.4-1-2.7-.3-5.1-.7-5.4-.9-.6-.3-3.3-.7-19-2.4-6.8-.8-44.5-1.3-45.2-.6zm39.3 73.1c10.1 5.8 25.6 14.8 34.4 19.9 27.8 16.1 60.5 35 74.5 43 7.4 4.3 16 9.2 19 11 3 1.8 7.5 4.4 10 5.8 2.5 1.4 11.5 6.5 20 11.5l15.5 9v222.4l-19 11c-10.4 6.1-20.3 11.8-22 12.8-25.7 14.7-51.9 29.8-59 34-4.9 2.9-10.8 6.3-13 7.5-2.2 1.3-20.9 12-41.5 23.9-33.8 19.5-37.7 21.6-39.9 20.6-1.3-.6-9.9-5.4-19-10.7-9.1-5.3-17.9-10.4-19.6-11.3-1.6-1-13.3-7.7-26-15-12.6-7.3-26-15-29.7-17.1-10.5-6.1-12.7-7.3-22.3-12.9-4.9-2.9-11.5-6.6-14.5-8.3-3-1.6-6.2-3.5-7-4.1-.8-.6-2.4-1.6-3.5-2.2-1.1-.6-12.6-7.2-25.5-14.7l-23.6-13.6.1-111c0-109.8 0-111 2-112.5 1.1-.9 2.6-1.6 3.3-1.6.6 0 1.2-.5 1.2-1 0-.6.4-1 .9-1 .8 0 18.2-9.7 25.1-14 .8-.5 8.4-4.8 16.8-9.7 8.4-4.8 16.7-9.6 18.5-10.7 1.8-1 13.8-7.9 26.7-15.4 12.9-7.4 34.1-19.7 47-27.2 12.9-7.5 24.2-13.9 25-14.3.8-.4 2.2-1.1 3-1.7 3-2 22.5-13 23.1-13 .3 0 8.9 4.8 19 10.6z"/></svg>