<svg version="1" xmlns="http://www.w3.org/2000/svg" width="933.333" height="933.333" viewBox="0 0 700.000000 700.000000"><path d="M337.5 65.6c-61.6 3.5-118.6 25.2-166.5 63.3-12.2 9.7-32.4 29.9-42.1 42.1-34.4 43.2-55.7 94.6-62 149.5-1.6 14.1-1.6 44.9 0 59C76.6 464.1 122 539.6 191 585.7c32.4 21.7 67.6 36.2 106 43.7 18.7 3.6 32.5 4.9 53 4.9s34.3-1.3 53-4.9c75.3-14.7 141-58 182.7-120.4 25.9-38.7 42.1-82.9 47.4-129.5 1.6-14.1 1.6-44.9 0-59-9.7-84.6-55-160-124.1-206.2-37.9-25.4-81-41.4-125.5-46.7-12.7-1.6-36-2.5-46-2zM446.9 183l96.1 55.5v223l-96.5 55.7-96.5 55.7-96.5-55.7-96.5-55.7v-223l96.3-55.7c52.9-30.6 96.5-55.6 96.9-55.5.3.1 43.8 25.2 96.7 55.7z"/></svg>