<?xml version="1.0" standalone="no"?>
<!DOCTYPE svg PUBLIC "-//W3C//DTD SVG 20010904//EN"
 "http://www.w3.org/TR/2001/REC-SVG-20010904/DTD/svg10.dtd">
<svg version="1.0" xmlns="http://www.w3.org/2000/svg"
 width="700.000000pt" height="700.000000pt" viewBox="0 0 700.000000 700.000000"
 preserveAspectRatio="xMidYMid meet">
<metadata>
Created by potrace 1.11, written by Peter Selinger 2001-2013
</metadata>
<g transform="translate(0.000000,700.000000) scale(0.100000,-0.100000)"
fill="#000000" stroke="none">
<path d="M3298 6345 c-2 -2 -33 -5 -70 -9 -85 -8 -150 -17 -282 -41 -47 -9
-159 -35 -191 -45 -358 -110 -582 -212 -840 -383 -80 -54 -202 -142 -215 -157
-3 -3 -36 -32 -75 -64 -97 -83 -243 -234 -329 -341 -104 -128 -162 -211 -241
-343 -129 -214 -260 -531 -320 -772 -17 -68 -55 -267 -60 -315 -4 -33 -11 -94
-15 -135 -10 -98 -10 -406 1 -495 4 -38 11 -90 14 -115 40 -337 181 -750 360
-1057 55 -93 166 -264 189 -290 6 -7 16 -18 21 -25 126 -166 272 -315 489
-497 39 -32 228 -161 296 -202 284 -169 683 -318 977 -365 19 -3 45 -8 57 -10
11 -2 41 -7 66 -9 25 -3 77 -10 115 -14 72 -9 500 -7 545 2 14 3 48 8 75 12
159 18 462 90 570 135 11 4 74 29 140 55 270 107 559 282 790 480 78 66 229
217 285 284 25 30 50 59 55 65 24 25 106 137 161 221 166 249 288 514 372 805
17 58 33 116 36 130 2 14 9 45 14 70 17 74 31 152 37 200 3 25 8 63 11 85 10
65 13 475 4 545 -4 36 -11 92 -15 125 -3 33 -10 78 -15 100 -5 22 -11 55 -15
72 -25 148 -110 421 -174 568 -159 359 -353 647 -608 901 -62 61 -147 140
-190 174 -43 34 -88 71 -101 81 -21 18 -235 161 -279 186 -261 150 -631 293
-853 329 -19 3 -38 8 -42 10 -3 2 -28 7 -54 10 -27 3 -51 7 -54 9 -6 3 -33 7
-190 24 -68 8 -445 13 -452 6z m1386 -1045 c40 -69 216 -372 390 -675 175
-302 327 -566 338 -585 11 -19 80 -139 154 -266 73 -128 138 -243 144 -256 10
-22 -4 -51 -151 -304 -89 -153 -171 -295 -182 -314 -11 -19 -78 -136 -150
-260 -160 -278 -299 -519 -386 -670 -36 -63 -68 -117 -71 -120 -4 -3 -9 -12
-12 -20 -3 -8 -38 -69 -76 -135 l-70 -120 -1112 0 -1111 -1 -19 31 c-10 16
-27 46 -38 65 -10 19 -45 80 -77 135 -32 55 -66 114 -75 130 -10 17 -56 97
-104 178 -47 82 -86 150 -86 152 0 2 -26 47 -58 102 -32 54 -120 205 -195 335
-75 130 -147 254 -159 276 -314 544 -302 523 -288 545 7 12 26 45 41 72 15 28
70 124 123 214 53 90 96 165 96 167 0 3 11 21 23 42 13 20 77 129 142 242 65
113 143 248 173 300 49 85 92 159 151 262 31 55 307 530 329 568 l21 36 1112
-1 1111 0 72 -125z"/>
<path d="M2480 4913 c-3 -778 0 -2916 4 -2920 2 -3 26 8 53 24 76 45 78 46
160 93 43 24 90 51 104 60 15 8 120 69 233 135 114 66 228 132 254 146 26 14
144 82 262 151 118 69 235 136 260 150 25 14 155 90 290 168 135 78 289 168
343 199 54 31 118 67 142 81 23 14 149 86 279 160 129 74 235 137 236 140 0 3
-8 10 -19 15 -38 21 -137 76 -170 96 -19 11 -199 115 -400 232 -201 116 -420
242 -486 280 -66 39 -210 122 -320 185 -110 63 -252 145 -315 182 -63 37 -135
79 -160 92 -25 14 -202 116 -393 227 -192 110 -350 201 -353 201 -2 0 -4 -44
-4 -97z"/>
</g>
</svg>
