<?xml version="1.0" standalone="no"?>
<!DOCTYPE svg PUBLIC "-//W3C//DTD SVG 20010904//EN"
 "http://www.w3.org/TR/2001/REC-SVG-20010904/DTD/svg10.dtd">
<svg version="1.0" xmlns="http://www.w3.org/2000/svg"
 width="700.000000pt" height="700.000000pt" viewBox="0 0 700.000000 700.000000"
 preserveAspectRatio="xMidYMid meet">
<metadata>
Created by potrace 1.11, written by Peter Selinger 2001-2013
</metadata>
<g transform="translate(0.000000,700.000000) scale(0.100000,-0.100000)"
fill="#000000" stroke="none">
<path d="M3299 6775 c-2 -1 -33 -6 -69 -9 -362 -31 -737 -140 -1090 -315 -764
-380 -1389 -1054 -1700 -1835 -86 -217 -163 -495 -185 -672 -4 -27 -8 -56 -10
-64 -19 -73 -27 -499 -13 -650 7 -68 30 -226 43 -290 11 -59 25 -118 35 -160
7 -25 13 -53 15 -63 8 -37 97 -291 132 -376 51 -125 156 -331 226 -446 71
-116 216 -327 238 -345 3 -3 23 -27 44 -55 84 -112 317 -352 467 -480 55 -48
240 -186 323 -242 414 -277 873 -457 1335 -524 144 -20 196 -23 400 -24 258 0
408 14 620 60 41 9 82 18 90 20 8 1 62 17 120 34 573 167 1091 486 1521 936
62 65 192 214 227 260 4 6 28 37 53 70 278 363 512 870 594 1286 50 250 60
357 60 614 0 221 -8 323 -35 475 -6 30 -13 69 -16 85 -41 232 -151 549 -279
805 -413 824 -1152 1469 -2014 1757 -73 25 -141 46 -150 48 -9 2 -65 15 -126
29 -97 23 -240 48 -360 63 -47 6 -491 13 -496 8z m1567 -1265 c55 -96 237
-411 404 -700 167 -289 313 -543 325 -565 13 -22 62 -107 110 -190 48 -82 97
-166 108 -185 10 -19 62 -108 113 -197 52 -89 94 -167 94 -173 0 -7 -68 -130
-151 -273 -84 -144 -212 -368 -287 -497 -74 -129 -143 -247 -153 -262 -11 -15
-19 -30 -19 -32 0 -3 -13 -27 -29 -53 -30 -51 -246 -425 -278 -483 -66 -117
-259 -449 -274 -472 -11 -15 -19 -30 -19 -33 0 -3 -11 -23 -25 -44 l-24 -39
-1263 1 -1263 2 -102 175 c-56 96 -114 198 -128 225 -15 28 -36 62 -46 77 -11
14 -19 28 -19 31 0 3 -19 38 -43 79 -24 40 -46 80 -50 88 -4 8 -16 29 -26 45
-11 17 -28 46 -39 65 -31 57 -116 205 -132 230 -13 22 -200 345 -234 404 -15
28 -77 134 -136 236 -241 416 -300 520 -300 530 0 6 76 142 169 303 93 160
178 308 189 327 11 19 68 118 127 220 59 102 119 205 132 230 14 25 40 70 58
100 18 30 42 71 53 90 11 19 70 123 132 230 62 107 122 211 133 230 10 19 41
72 68 118 27 45 49 85 49 87 0 4 40 71 78 130 6 11 15 27 19 35 4 8 17 31 29
51 l23 36 1263 -1 1263 -1 101 -175z"/>
<path d="M2189 5228 c-3 -208 0 -3481 4 -3484 5 -5 93 45 887 503 736 425 814
470 850 490 19 11 220 127 445 258 226 130 430 249 455 263 25 14 68 38 95 54
28 16 57 33 65 38 8 5 67 39 130 76 63 36 117 68 120 71 3 2 -4 10 -14 16 -39
24 -73 44 -146 85 -41 24 -88 51 -105 61 -16 10 -50 29 -75 43 -25 14 -112 64
-193 112 -82 47 -167 97 -190 110 -23 12 -260 149 -527 303 -267 155 -502 290
-522 302 -68 38 -99 56 -448 258 -585 339 -819 473 -824 473 -3 0 -6 -15 -7
-32z"/>
</g>
</svg>
