<?xml version="1.0" standalone="no"?>
<!DOCTYPE svg PUBLIC "-//W3C//DTD SVG 20010904//EN"
 "http://www.w3.org/TR/2001/REC-SVG-20010904/DTD/svg10.dtd">
<svg version="1.0" xmlns="http://www.w3.org/2000/svg"
 width="700.000000pt" height="700.000000pt" viewBox="0 0 700.000000 700.000000"
 preserveAspectRatio="xMidYMid meet">
<metadata>
Created by potrace 1.11, written by Peter Selinger 2001-2013
</metadata>
<g transform="translate(0.000000,700.000000) scale(0.100000,-0.100000)"
fill="#000000" stroke="none">
<path d="M1861 6340 c-10 -7 -32 -43 -116 -189 -41 -72 -109 -191 -152 -263
-201 -349 -338 -587 -361 -628 -13 -25 -39 -70 -57 -100 -18 -30 -42 -72 -54
-92 -12 -21 -30 -55 -42 -75 -12 -21 -25 -42 -29 -48 -4 -5 -21 -35 -38 -65
-16 -30 -104 -183 -194 -340 -156 -269 -269 -466 -500 -868 l-100 -173 118
-202 c64 -111 128 -222 142 -247 14 -25 75 -130 135 -235 61 -104 120 -208
132 -230 13 -22 86 -150 164 -283 77 -134 141 -246 141 -248 0 -2 18 -33 40
-69 22 -36 40 -70 40 -75 0 -6 5 -10 10 -10 6 0 10 -4 10 -9 0 -9 82 -154 255
-451 40 -69 83 -143 95 -165 57 -102 72 -126 129 -223 34 -57 61 -105 61 -106
0 -2 38 -68 84 -147 l84 -143 1642 0 1642 -1 125 215 c69 118 136 235 150 260
29 53 248 431 274 475 10 16 24 41 32 55 27 51 301 527 342 595 23 39 45 77
48 85 4 8 16 30 27 48 18 29 185 319 230 397 45 80 330 574 349 605 11 19 30
52 41 73 l21 38 -64 112 c-36 62 -74 128 -85 147 -11 19 -86 150 -167 290 -81
140 -157 273 -170 295 -12 22 -90 157 -173 300 -82 143 -251 436 -374 650
-124 215 -251 435 -283 490 -32 55 -68 118 -80 140 -47 83 -237 410 -241 415
-7 6 -3274 6 -3283 0z m554 -1125 c368 -213 1169 -673 1215 -698 30 -16 62
-36 71 -43 8 -8 18 -14 21 -14 4 0 41 -20 82 -45 42 -25 79 -45 81 -45 3 0 28
-15 57 -33 29 -19 78 -47 108 -64 30 -17 106 -60 169 -97 62 -36 115 -66 116
-66 2 0 32 -17 66 -38 35 -21 89 -52 119 -69 30 -17 123 -70 205 -118 83 -48
168 -97 190 -110 88 -48 451 -258 463 -268 10 -8 1 -17 -35 -37 -26 -15 -71
-40 -98 -56 -28 -16 -116 -66 -195 -112 -80 -46 -152 -87 -160 -93 -17 -10
-289 -166 -545 -313 -93 -54 -177 -102 -185 -106 -87 -52 -223 -130 -300 -173
-25 -14 -144 -82 -265 -152 -121 -70 -235 -136 -253 -146 -77 -44 -179 -103
-372 -214 -113 -65 -277 -159 -365 -210 -131 -76 -335 -193 -367 -212 -5 -2
-8 815 -8 1817 l0 1821 43 -24 c23 -13 87 -50 142 -82z"/>
</g>
</svg>
