<?xml version="1.0" standalone="no"?>
<!DOCTYPE svg PUBLIC "-//W3C//DTD SVG 20010904//EN"
 "http://www.w3.org/TR/2001/REC-SVG-20010904/DTD/svg10.dtd">
<svg version="1.0" xmlns="http://www.w3.org/2000/svg"
 width="700.000000pt" height="700.000000pt" viewBox="0 0 700.000000 700.000000"
 preserveAspectRatio="xMidYMid meet">
<metadata>
Created by potrace 1.11, written by Peter Selinger 2001-2013
</metadata>
<g transform="translate(0.000000,700.000000) scale(0.100000,-0.100000)"
fill="#000000" stroke="none">
<path d="M3387 6474 c-1 -1 -45 -5 -97 -9 -52 -3 -108 -8 -125 -10 -16 -2 -50
-7 -75 -10 -25 -3 -56 -7 -70 -10 -14 -3 -47 -10 -75 -15 -45 -9 -95 -20 -150
-33 -11 -3 -40 -11 -65 -18 -25 -7 -49 -13 -55 -14 -55 -12 -266 -88 -360
-129 -134 -59 -396 -201 -403 -218 -2 -4 -8 -8 -14 -8 -9 0 -154 -98 -217
-147 -129 -100 -297 -256 -396 -367 -27 -30 -73 -86 -100 -120 -16 -21 -35
-44 -42 -51 -17 -18 -152 -218 -196 -292 -49 -81 -167 -314 -167 -330 0 -7 -5
-13 -12 -13 -6 0 -9 -3 -5 -6 3 -3 -9 -41 -27 -84 -18 -42 -41 -105 -51 -139
-11 -33 -23 -61 -27 -61 -5 0 -7 -4 -4 -8 2 -4 -5 -39 -16 -77 -11 -39 -26
-99 -34 -135 -9 -36 -18 -72 -21 -80 -3 -8 -5 -25 -4 -37 1 -13 -3 -23 -9 -23
-6 0 -8 -4 -5 -10 3 -5 1 -36 -4 -67 -19 -108 -21 -128 -27 -228 -4 -56 -11
-103 -18 -107 -7 -5 -7 -8 0 -8 7 0 10 -38 10 -109 -1 -70 -5 -107 -11 -103
-5 3 -5 -1 2 -9 6 -8 13 -58 15 -117 2 -56 5 -102 8 -102 3 0 7 -16 8 -35 1
-19 3 -51 5 -70 1 -19 6 -35 11 -35 5 0 2 -8 -5 -17 -8 -9 -9 -14 -3 -10 13 8
29 -87 18 -105 -5 -7 -3 -8 6 -3 10 6 12 3 8 -13 -4 -12 -2 -20 3 -16 5 3 9
-3 10 -13 1 -23 15 -98 19 -98 1 0 4 -11 7 -25 6 -31 9 -41 16 -60 6 -16 27
-84 32 -103 2 -7 6 -23 11 -37 4 -14 6 -27 5 -29 -2 -2 3 -8 11 -12 10 -7 10
-9 -2 -9 -13 0 -13 -1 0 -10 8 -5 15 -13 16 -17 0 -4 6 -21 12 -36 7 -16 9
-33 6 -39 -4 -7 -2 -8 4 -4 12 7 15 -1 15 -36 0 -10 3 -16 6 -13 4 2 14 -11
23 -30 13 -30 13 -33 -1 -28 -11 3 -11 1 2 -7 20 -13 41 -57 38 -78 -1 -7 4
-11 11 -10 15 4 18 -24 3 -35 -6 -5 -3 -7 7 -3 20 6 27 -3 30 -37 1 -14 7 -23
12 -20 5 4 7 -1 3 -11 -4 -10 -3 -15 3 -11 5 3 14 -4 20 -15 6 -11 7 -20 3
-20 -4 0 3 -7 15 -16 12 -8 22 -20 22 -26 0 -7 -7 -3 -16 8 -15 19 -15 19 -5
-1 5 -11 21 -32 35 -47 25 -26 34 -44 18 -34 -5 3 -9 -1 -9 -8 0 -8 8 -11 19
-8 12 3 18 -1 18 -12 0 -11 -5 -14 -12 -10 -7 4 -8 3 -4 -5 4 -6 12 -9 17 -5
6 3 13 -3 16 -15 3 -12 8 -21 12 -21 3 0 12 -9 19 -21 11 -17 11 -20 0 -15 -7
4 -3 -1 9 -10 13 -9 23 -23 23 -31 0 -8 4 -12 8 -9 4 2 13 -4 20 -15 10 -15
10 -19 0 -20 -7 0 -2 -5 11 -10 15 -6 21 -15 17 -24 -3 -8 -2 -14 2 -14 20 3
33 -2 27 -11 -3 -6 -1 -10 4 -10 6 0 11 -4 11 -9 0 -5 18 -27 41 -49 22 -23
38 -45 35 -51 -3 -5 4 -11 15 -14 13 -4 18 -10 13 -18 -4 -7 -3 -10 3 -6 15
10 53 -39 41 -51 -8 -8 -4 -9 11 -5 20 5 26 -4 22 -30 -1 -5 3 -6 9 -2 5 3 10
1 10 -5 0 -6 5 -8 10 -5 6 3 10 -1 10 -10 0 -9 4 -14 9 -11 5 3 25 -12 44 -33
20 -22 39 -36 43 -33 5 4 2 -1 -5 -10 -14 -19 -13 -20 17 -22 18 -1 92 -59 92
-72 0 -4 -6 -1 -14 5 -11 9 -16 9 -22 -1 -4 -7 -3 -10 1 -5 5 4 17 -1 28 -10
11 -10 17 -12 13 -5 -10 16 2 15 19 -2 8 -8 10 -17 5 -22 -6 -6 -2 -10 9 -10
11 0 17 5 14 10 -3 5 -1 6 6 2 7 -5 9 -17 5 -29 -6 -22 -6 -22 11 -2 13 16 16
17 11 3 -3 -11 -1 -15 8 -12 18 7 59 -32 50 -48 -5 -9 -1 -8 11 2 11 9 16 10
11 3 -5 -9 0 -13 13 -13 12 0 21 -7 21 -16 0 -8 4 -12 10 -9 5 3 10 1 10 -5 0
-6 4 -9 9 -6 5 3 15 -2 22 -11 12 -14 12 -16 -1 -8 -13 8 -13 7 -1 -8 15 -19
26 -23 15 -6 -4 7 -1 10 7 7 8 -3 14 -11 14 -18 0 -7 8 -14 18 -16 9 -1 15 2
11 7 -3 5 -10 6 -16 3 -7 -5 -8 -2 -4 5 6 9 13 8 27 -5 10 -9 17 -20 14 -24
-2 -3 6 -6 18 -6 15 1 22 -4 21 -17 -2 -14 1 -15 12 -6 10 8 14 8 14 0 0 -6 7
-11 15 -11 21 0 65 -22 65 -33 0 -5 -6 -4 -14 2 -11 9 -15 8 -20 -4 -3 -10 -2
-13 5 -10 5 4 17 1 26 -7 12 -9 15 -9 9 0 -4 7 -2 12 8 12 8 0 18 -5 22 -12 5
-7 3 -8 -6 -3 -8 5 -11 4 -7 -3 4 -5 15 -8 25 -6 21 6 65 -33 55 -49 -4 -7 1
-6 10 2 15 12 22 12 45 1 15 -8 32 -14 37 -15 6 0 9 -6 8 -12 -1 -6 6 -10 15
-10 26 1 72 -14 72 -24 0 -5 7 -6 15 -3 8 4 15 1 15 -5 0 -6 -5 -11 -12 -11
-6 0 -8 -3 -5 -6 4 -4 13 -1 21 5 11 9 16 9 22 0 4 -8 3 -9 -4 -5 -7 4 -12 5
-12 2 0 -3 9 -10 20 -16 17 -9 19 -8 13 7 -5 15 -4 16 8 7 8 -6 27 -14 42 -18
15 -4 25 -11 22 -16 -3 -6 -2 -10 4 -10 5 0 12 6 14 13 4 9 6 9 6 0 1 -7 10
-13 20 -13 11 0 23 -9 26 -21 7 -19 7 -20 21 -2 13 17 13 17 14 -1 0 -15 2
-16 15 -6 13 11 18 10 31 -8 8 -12 20 -22 26 -22 7 0 3 6 -8 14 -17 13 -16 14
16 7 19 -4 34 -13 32 -20 -2 -9 3 -9 17 -1 17 8 25 5 46 -17 14 -15 25 -22 25
-15 0 6 -4 12 -10 12 -5 0 -10 5 -10 11 0 8 4 9 13 0 8 -6 17 -8 20 -4 4 3 9
-2 13 -11 8 -22 25 -21 18 2 -5 14 -4 15 5 2 6 -8 11 -11 11 -6 0 4 12 1 26
-9 15 -9 23 -12 20 -6 -4 6 -2 11 3 11 6 0 11 -4 11 -10 0 -5 7 -6 17 -3 11 4
14 3 9 -5 -4 -7 -2 -12 3 -12 6 0 11 4 11 8 0 5 7 9 15 9 11 0 14 -7 10 -21
-5 -18 -4 -19 7 -6 13 15 72 24 63 9 -3 -4 15 -6 39 -5 25 1 43 -1 41 -5 -3
-4 20 -6 51 -5 30 1 58 -2 61 -7 3 -5 9 -3 14 4 6 10 9 7 10 -11 0 -17 3 -20
7 -10 4 8 15 16 26 18 11 2 15 -1 11 -7 -3 -6 1 -11 9 -11 9 0 16 4 16 8 0 5
7 9 15 9 18 0 20 -13 3 -20 -7 -3 -3 -4 8 -4 15 1 20 6 16 17 -5 12 -3 13 9 3
11 -9 19 -9 26 -2 8 8 13 7 18 -2 6 -8 4 -10 -6 -4 -12 8 -12 6 0 -8 14 -18
22 -22 20 -9 -3 19 2 33 11 27 5 -3 6 -13 3 -22 -4 -11 -3 -14 5 -9 7 4 12 14
12 22 0 17 16 19 26 2 5 -7 3 -8 -6 -3 -8 5 -11 4 -6 -3 4 -6 13 -9 21 -6 8 4
13 9 10 13 -2 4 2 8 10 8 8 0 12 -4 10 -8 -3 -4 2 -9 10 -13 17 -6 45 2 45 13
0 4 7 8 15 8 8 0 12 -4 10 -8 -3 -4 2 -9 10 -12 10 -4 12 -1 8 11 -6 15 -5 16
12 2 11 -9 16 -10 11 -2 -4 6 -2 12 3 12 6 0 11 -4 11 -9 0 -4 17 -8 39 -7 29
1 37 4 33 15 -4 10 -1 12 9 5 23 -14 68 -12 62 3 -3 7 0 13 6 13 6 0 11 -5 11
-11 0 -8 4 -8 15 1 17 14 97 22 89 9 -3 -5 2 -6 10 -3 9 3 14 10 11 14 -8 13
21 6 40 -10 9 -7 15 -9 14 -4 -4 21 2 35 11 29 6 -4 7 -11 4 -17 -4 -7 -2 -8
5 -4 6 4 9 12 6 17 -4 5 -3 9 2 10 4 0 19 3 33 5 14 2 32 5 40 5 8 1 21 6 28
12 15 12 16 -5 1 -20 -8 -8 -7 -13 2 -18 8 -5 10 -4 5 4 -4 6 0 14 8 17 9 3
13 10 10 15 -3 5 1 9 10 9 8 0 22 3 30 6 13 5 15 2 9 -12 -6 -16 -5 -17 9 -4
9 8 13 19 10 24 -3 5 0 6 6 2 7 -4 12 -2 12 3 0 6 5 11 11 11 5 0 7 -6 3 -12
-5 -8 -1 -7 10 2 24 19 46 22 39 4 -3 -8 0 -14 6 -14 6 0 10 3 10 8 -4 21 3
31 16 26 8 -4 15 -2 15 4 0 15 37 21 50 8 6 -6 11 -7 10 -1 -5 22 1 25 23 14
21 -12 21 -11 7 6 -14 17 -14 18 8 6 12 -6 22 -8 21 -4 -3 20 2 27 11 13 8
-13 10 -13 10 2 0 11 5 15 15 12 8 -4 15 -1 15 5 0 6 5 11 11 11 5 0 7 -6 4
-12 -4 -7 0 -5 8 5 8 9 22 17 31 17 9 0 16 5 16 10 0 6 5 10 11 10 5 0 7 -6 4
-12 -4 -7 1 -4 9 6 9 11 16 16 16 10 0 -5 3 -5 8 1 4 6 18 16 32 24 23 13 24
13 11 -3 -12 -14 -12 -16 3 -10 9 3 16 14 16 23 1 13 3 13 17 -4 10 -13 14
-15 10 -4 -3 10 5 22 24 33 27 16 29 16 24 -1 -3 -10 0 -8 6 5 7 12 21 22 31
22 12 0 16 -4 12 -12 -4 -7 -3 -8 4 -4 6 4 9 13 6 21 -4 10 1 13 23 10 15 -2
22 -2 16 1 -21 9 -15 27 7 21 13 -3 20 0 20 10 0 8 6 13 13 10 7 -3 19 4 26
16 13 20 14 20 28 1 14 -19 15 -19 11 1 -2 12 3 20 12 20 8 0 21 4 28 8 6 5
18 5 25 2 6 -4 4 0 -6 8 -17 14 -16 16 17 28 19 7 33 16 31 20 -6 9 21 19 38
15 6 -1 9 -1 4 1 -4 3 -4 9 -1 14 4 6 11 6 19 -1 12 -10 13 -7 10 10 -2 13 -2
20 2 16 3 -3 26 10 50 30 26 21 50 34 59 30 8 -3 12 -2 9 4 -3 6 -1 10 6 10 7
0 9 3 6 7 -10 9 44 43 56 36 6 -3 7 -1 3 5 -13 22 6 36 21 16 11 -14 14 -15
13 -4 -4 28 0 41 10 35 6 -3 10 1 10 9 0 19 16 21 24 4 3 -7 4 -4 3 7 -1 11 3
19 10 18 6 -2 15 7 18 18 4 12 13 18 20 15 10 -3 12 0 8 11 -4 11 -2 14 5 9 7
-4 12 -1 12 9 0 9 5 13 10 10 6 -3 10 1 10 9 0 9 3 16 8 17 24 2 45 8 50 15 4
4 -1 4 -10 1 -10 -4 -18 -2 -18 3 0 6 7 10 16 10 8 0 12 5 9 10 -6 9 8 14 28
11 5 -1 6 3 2 9 -8 13 65 91 78 83 6 -4 8 0 4 10 -9 23 21 46 35 26 8 -11 9
-10 4 5 -7 21 11 49 27 39 6 -3 7 -1 3 5 -4 7 5 24 21 39 15 14 21 23 13 19
-8 -4 -5 1 8 12 12 11 22 23 22 27 0 3 6 13 14 20 10 11 16 11 27 2 11 -10 11
-9 0 6 -11 13 -11 20 -1 32 7 8 17 12 23 8 6 -3 7 -1 3 5 -9 16 42 95 59 92 4
-1 10 2 13 6 4 4 1 4 -5 0 -7 -4 -13 -2 -13 3 0 6 5 11 11 11 5 0 8 4 5 9 -4
5 -3 11 1 13 5 1 16 17 25 33 10 17 22 29 27 28 5 -1 7 6 4 17 -3 12 1 22 10
26 9 3 19 19 22 35 4 18 13 29 23 29 15 0 15 2 2 10 -10 6 -11 10 -2 10 6 0
12 7 12 15 0 8 5 15 11 15 5 0 7 5 4 10 -3 6 -2 10 3 10 6 0 9 8 8 17 0 10 4
18 11 18 6 0 15 4 20 9 5 5 3 6 -4 2 -16 -9 -17 6 -1 22 7 7 8 12 2 12 -5 1 2
8 16 16 14 8 17 13 8 10 -12 -3 -15 -1 -11 10 3 7 9 14 14 14 5 0 9 7 9 15 0
8 5 25 12 39 9 22 14 24 27 14 13 -10 14 -10 4 2 -15 17 -17 44 -3 35 6 -4 9
4 7 17 -1 15 3 22 11 20 8 -1 11 2 7 8 -9 14 14 92 25 85 6 -3 7 1 4 10 -4 8
-1 22 6 30 7 8 10 15 7 15 -3 0 -1 13 4 30 7 18 16 27 22 24 9 -5 9 -4 1 5
-12 13 -7 54 6 46 4 -2 5 7 2 22 -3 18 -1 24 6 19 8 -5 10 -1 6 9 -4 8 -1 22
6 30 7 9 10 18 7 22 -3 3 0 20 7 37 7 17 11 37 8 45 -3 8 0 11 7 7 7 -5 9 -1
5 8 -3 9 -3 24 1 34 4 9 9 31 10 47 2 17 6 44 9 60 4 17 9 50 12 75 3 25 7 59
10 75 6 39 15 148 17 205 1 25 5 50 9 56 4 6 4 14 0 18 -11 12 -9 160 3 168 7
5 6 8 -1 8 -7 0 -12 25 -13 64 -1 35 -3 73 -6 84 -3 20 -14 123 -20 188 -1 17
-5 35 -8 40 -3 5 -8 27 -11 49 -4 22 -8 47 -11 55 -2 8 -7 26 -9 40 -11 53
-27 125 -30 135 -2 6 -4 13 -5 17 -1 4 -8 26 -16 48 -8 22 -15 44 -16 48 -2 9
-3 13 -24 77 -52 159 -137 348 -238 525 -63 110 -184 293 -199 298 -4 2 -8 8
-8 14 0 20 -190 238 -305 348 -81 78 -102 97 -178 157 -40 32 -74 61 -77 64
-11 13 -229 158 -300 199 -77 45 -324 170 -344 175 -6 1 -22 7 -36 12 -14 6
-45 19 -70 28 -25 9 -54 21 -65 25 -11 5 -38 14 -60 21 -22 6 -49 15 -60 19
-23 9 -154 44 -205 56 -49 11 -50 11 -52 14 -2 1 -16 3 -33 4 -16 1 -39 5 -50
9 -21 7 -60 14 -135 22 -25 3 -58 7 -75 10 -67 11 -430 26 -438 19z m437
-5932 c3 -5 -1 -9 -9 -9 -8 0 -12 4 -9 9 3 4 7 8 9 8 2 0 6 -4 9 -8z m-60 -13
c3 -3 -5 -5 -19 -5 -13 0 -22 3 -19 7 4 8 30 6 38 -2z m-149 -9 c-3 -5 -12
-10 -18 -10 -7 0 -6 4 3 10 19 12 23 12 15 0z"/>
<path d="M1211 1567 c2 -1 13 -9 24 -17 19 -14 19 -14 6 3 -7 9 -18 17 -24 17
-6 0 -8 -1 -6 -3z"/>
<path d="M5700 1479 c-7 -11 -10 -23 -7 -25 2 -2 9 7 15 21 14 30 7 33 -8 4z"/>
<path d="M1414 1339 c-5 -9 -2 -10 9 -6 9 3 18 2 21 -4 2 -5 3 -4 2 3 -3 17
-23 21 -32 7z"/>
<path d="M1530 1256 c0 -2 8 -10 18 -17 15 -13 16 -12 3 4 -13 16 -21 21 -21
13z"/>
<path d="M1713 1095 c0 -8 4 -12 9 -9 5 3 6 10 3 15 -9 13 -12 11 -12 -6z"/>
<path d="M1780 1039 c0 -5 5 -7 10 -4 6 3 10 8 10 11 0 2 -4 4 -10 4 -5 0 -10
-5 -10 -11z"/>
<path d="M5105 980 c-3 -6 1 -7 9 -4 18 7 21 14 7 14 -6 0 -13 -4 -16 -10z"/>
<path d="M1955 929 c-11 -16 -1 -19 13 -3 7 8 8 14 3 14 -5 0 -13 -5 -16 -11z"/>
<path d="M4999 928 c-5 -18 -6 -38 -1 -34 7 8 12 36 6 36 -2 0 -4 -1 -5 -2z"/>
<path d="M2035 890 c3 -5 8 -10 11 -10 2 0 4 5 4 10 0 6 -5 10 -11 10 -5 0 -7
-4 -4 -10z"/>
<path d="M2156 827 c3 -10 9 -15 12 -12 3 3 0 11 -7 18 -10 9 -11 8 -5 -6z"/>
<path d="M2215 780 c-3 -6 1 -7 9 -4 18 7 21 14 7 14 -6 0 -13 -4 -16 -10z"/>
<path d="M2310 750 c-9 -6 -10 -10 -3 -10 6 0 15 5 18 10 8 12 4 12 -15 0z"/>
<path d="M2355 730 c21 -24 26 -25 19 -6 -3 8 -13 17 -22 21 -13 5 -13 2 3
-15z"/>
<path d="M4610 719 c0 -5 5 -7 10 -4 6 3 10 8 10 11 0 2 -4 4 -10 4 -5 0 -10
-5 -10 -11z"/>
<path d="M4430 661 c0 -6 4 -13 10 -16 6 -3 7 1 4 9 -7 18 -14 21 -14 7z"/>
<path d="M2570 651 c0 -6 4 -13 10 -16 6 -3 7 1 4 9 -7 18 -14 21 -14 7z"/>
<path d="M2716 603 c-6 -14 -5 -15 5 -6 7 7 10 15 7 18 -3 3 -9 -2 -12 -12z"/>
<path d="M2762 597 c-8 -10 -6 -13 7 -13 11 0 17 6 14 13 -3 7 -6 13 -8 13 -1
0 -7 -6 -13 -13z"/>
<path d="M4134 579 c-4 -7 -3 -9 4 -5 5 3 13 0 15 -6 4 -9 6 -10 6 -1 1 17
-16 25 -25 12z"/>
<path d="M2905 560 c10 -11 20 -20 23 -20 3 0 -3 9 -13 20 -10 11 -20 20 -23
20 -3 0 3 -9 13 -20z"/>
<path d="M3055 541 c-3 -5 -2 -12 3 -15 5 -3 9 1 9 9 0 17 -3 19 -12 6z"/>
<path d="M3136 527 c3 -10 9 -15 12 -12 3 3 0 11 -7 18 -10 9 -11 8 -5 -6z"/>
<path d="M3891 524 c0 -11 3 -14 6 -6 3 7 2 16 -1 19 -3 4 -6 -2 -5 -13z"/>
<path d="M3187 519 c7 -7 15 -10 18 -7 3 3 -2 9 -12 12 -14 6 -15 5 -6 -5z"/>
</g>
</svg>
